#!OML:ASF F:\VICON\USERDATA\INSTALL\rory3\rory3.ASF
:FULLY-SPECIFIED
:DEGREES
410
root -11.1175 17.5723 10.3129 38.663 8.61429 26.603
lowerback 50.1044 -4.63222 15.1047
upperback 10.0713 3.32381 5.81798
thorax -8.42438 1.4861 -1.84717
lowerneck -8.56446 -16.3669 -14.4852
upperneck 4.71855 -21.043 10.9277
head 5.4375 -10.2221 3.60132
rclavicle -4.77083e-014 -7.95139e-016
rhumerus 34.4797 -36.9732 -62.6214
rradius 37.1105
rwrist -30.964
rhand -35.142 0.173689
rfingers 7.12502
rthumb -8.28184 -29.644
lclavicle -4.77083e-014 -7.95139e-016
lhumerus -28.6896 -19.5682 88.6497
lradius 58.2987
lwrist 19.5519
lhand -20.1047 17.8206
lfingers 7.12502
lthumb 6.23869 47.7087
rfemur -66.186 -18.3071 3.6108
rtibia 46.5285
rfoot -9.21826 -14.8571
rtoes 19.8847
lfemur -17.9731 -1.11619 -28.8493
ltibia 15.5328
lfoot 7.97927 -11.7257
ltoes -1.41699
411
root -11.1058 17.5858 10.2845 38.405 8.94 26.3186
lowerback 49.7702 -4.42902 14.8984
upperback 9.98648 3.3991 5.82999
thorax -8.4979 1.51048 -1.80052
lowerneck -8.53741 -16.2525 -14.6029
upperneck 5.15612 -20.8802 10.7267
head 5.53991 -10.1427 3.56856
rclavicle 9.22361e-014 2.0276e-014
rhumerus 32.6462 -36.3934 -61.9585
rradius 37.8162
rwrist -31.0457
rhand -34.9327 0.405376
rfingers 7.12502
rthumb -8.0798 -29.4202
lclavicle 9.22361e-014 2.0276e-014
lhumerus -28.8456 -19.5789 88.7714
lradius 58.1809
lwrist 19.3442
lhand -19.9382 17.8029
lfingers 7.12502
lthumb 6.39952 47.6862
rfemur -65.8119 -18.2534 3.88822
rtibia 46.3004
rfoot -9.14712 -14.9496
rtoes 20.2633
lfemur -18.5559 -0.79466 -29.1145
ltibia 16.2898
lfoot 6.52088 -11.6551
ltoes -1.72278
412
root -11.0931 17.5985 10.2549 38.17 9.26146 26.041
lowerback 49.3595 -4.14727 14.7594
upperback 10.0013 3.58492 5.94092
thorax -8.43812 1.59184 -1.72134
lowerneck -8.67692 -16.265 -14.9411
upperneck 5.47049 -20.8446 10.6039
head 5.67615 -10.1262 3.55657
rclavicle 1.43125e-013 1.22849e-013
rhumerus 31.1176 -36.0358 -61.0742
rradius 38.2294
rwrist -31.2121
rhand -34.8778 0.309632
rfingers 7.12502
rthumb -8.0268 -29.5179
lclavicle 1.43125e-013 1.22849e-013
lhumerus -28.8057 -19.7245 89.0876
lradius 58.0266
lwrist 19.0065
lhand -20.027 17.4678
lfingers 7.12502
lthumb 6.31371 47.3537
rfemur -65.4393 -18.1559 4.12512
rtibia 46.0582
rfoot -9.00612 -15.0942
rtoes 20.5568
lfemur -19.1448 -0.595835 -29.3692
ltibia 16.9884
lfoot 5.03345 -11.4427
ltoes -3.33095
413
root -11.078 17.613 10.2259 37.9051 9.65514 25.7403
lowerback 48.8365 -3.93049 14.6273
upperback 10.0801 3.67162 6.02697
thorax -8.29072 1.64073 -1.6334
lowerneck -8.81009 -16.1968 -15.098
upperneck 5.70002 -20.7168 10.4717
head 5.75464 -10.0647 3.53836
rclavicle 1.36764e-013 9.81996e-014
rhumerus 29.7282 -35.5934 -60.4019
rradius 38.6204
rwrist -31.31
rhand -34.8967 0.0988877
rfingers 7.12502
rthumb -8.04509 -29.728
lclavicle 1.36764e-013 9.81996e-014
lhumerus -28.8169 -19.7778 89.2746
lradius 57.9887
lwrist 18.8266
lhand -19.9893 17.5067
lfingers 7.12502
lthumb 6.35019 47.3915
rfemur -64.9964 -18.0637 4.3753
rtibia 45.7931
rfoot -8.87622 -15.3188
rtoes 20.5641
lfemur -19.6745 -0.551326 -29.5406
ltibia 17.6278
lfoot 3.79493 -11.0595
ltoes -4.96634
414
root -11.0653 17.629 10.1985 37.5732 10.1008 25.3247
lowerback 48.2765 -3.71688 14.5279
upperback 10.2178 3.75844 6.11932
thorax -8.06457 1.69673 -1.55141
lowerneck -8.93402 -16.0906 -15.1842
upperneck 5.86107 -20.5503 10.4064
head 5.80647 -9.9817 3.54044
rclavicle -8.90555e-014 2.0276e-014
rhumerus 28.2546 -35.03 -59.6468
rradius 39.1293
rwrist -31.7421
rhand -34.9083 -0.0975089
rfingers 7.12502
rthumb -8.05623 -29.924
lclavicle -8.90555e-014 2.0276e-014
lhumerus -28.6937 -19.7962 89.3833
lradius 57.8687
lwrist 18.6956
lhand -19.7737 17.9315
lfingers 7.12502
lthumb 6.55829 47.8099
rfemur -64.484 -17.878 4.7092
rtibia 45.5191
rfoot -8.83864 -15.6616
rtoes 20.7877
lfemur -20.1605 -0.370458 -29.6061
ltibia 18.266
lfoot 2.5191 -10.7566
ltoes -6.99901
415
root -11.0532 17.6456 10.1707 37.2451 10.5293 24.8937
lowerback 47.7558 -3.53327 14.352
upperback 10.3188 3.7936 6.23467
thorax -7.89763 1.72363 -1.38926
lowerneck -9.01944 -15.926 -15.3792
upperneck 5.97003 -20.2913 10.3108
head 5.83177 -9.86051 3.56601
rclavicle 3.18055e-015 4.57205e-014
rhumerus 26.9529 -34.2159 -58.8862
rradius 39.651
rwrist -32.3613
rhand -34.8959 -0.368578
rfingers 7.12502
rthumb -8.04426 -30.1955
lclavicle 3.18055e-015 4.57205e-014
lhumerus -28.6031 -19.585 89.539
lradius 57.6816
lwrist 18.4456
lhand -19.7656 18.0824
lfingers 7.12502
lthumb 6.56609 47.9606
rfemur -64.0193 -17.727 5.10136
rtibia 45.2513
rfoot -8.76762 -15.9952
rtoes 20.8869
lfemur -20.6388 -0.170825 -29.668
ltibia 18.8869
lfoot 1.14742 -10.4421
ltoes -9.16231
